<svg width="26" height="24" viewBox="0 0 26 24" fill="none" xmlns="http://www.w3.org/2000/svg">
<g clip-path="url(#clip0)">
<path d="M25.1225 11.3801L14.1781 0.482737C14.0234 0.329426 13.8398 0.207807 13.6376 0.124831C13.4355 0.041854 13.2188 -0.000854492 13 -0.000854492C12.7812 -0.000854492 12.5645 0.041854 12.3624 0.124831C12.1602 0.207807 11.9766 0.329426 11.8219 0.482737L0.869375 11.3801C0.312908 11.9372 0.000538583 12.689 0 13.4727L0 22.2212C-4.86086e-06 22.6915 0.188061 23.1427 0.523051 23.476C0.85804 23.8094 1.31268 23.9977 1.7875 23.9998H8.84813C9.32295 23.9977 9.77758 23.8094 10.1126 23.476C10.4476 23.1427 10.6356 22.6915 10.6356 22.2212V16.9495C10.6356 16.3284 10.8847 15.7327 11.3281 15.2935C11.7715 14.8542 12.3729 14.6075 13 14.6075C13.6271 14.6075 14.2285 14.8542 14.6719 15.2935C15.1153 15.7327 15.3644 16.3284 15.3644 16.9495V22.2212C15.3633 22.4544 15.4088 22.6855 15.4981 22.9012C15.5875 23.117 15.7189 23.3131 15.885 23.4784C16.0511 23.6437 16.2485 23.7748 16.4659 23.8643C16.6833 23.9538 16.9165 23.9998 17.1519 23.9998H24.2044C24.6806 23.9998 25.1373 23.8124 25.4741 23.4789C25.8108 23.1453 26 22.6929 26 22.2212V13.4727C26 13.0838 25.9225 12.6988 25.7719 12.3397C25.6213 11.9806 25.4006 11.6545 25.1225 11.3801ZM24.8138 22.2212C24.8148 22.3007 24.7998 22.3797 24.7696 22.4534C24.7394 22.5272 24.6945 22.5941 24.6377 22.6504C24.5809 22.7067 24.5133 22.7511 24.4389 22.781C24.3644 22.811 24.2847 22.8259 24.2044 22.8248H17.1519C16.9903 22.8248 16.8353 22.7612 16.721 22.648C16.6067 22.5348 16.5425 22.3813 16.5425 22.2212V16.9495C16.5655 16.474 16.4908 15.9989 16.3229 15.5528C16.1551 15.1068 15.8975 14.6991 15.5659 14.3546C15.2344 14.01 14.8356 13.7357 14.3938 13.5483C13.9521 13.3609 13.4765 13.2642 12.9959 13.2642C12.5154 13.2642 12.0398 13.3609 11.598 13.5483C11.1563 13.7357 10.7575 14.01 10.4259 14.3546C10.0943 14.6991 9.83682 15.1068 9.66896 15.5528C9.50109 15.9989 9.42639 16.474 9.44938 16.9495V22.2212C9.45045 22.3001 9.43569 22.3784 9.40596 22.4516C9.37623 22.5247 9.33211 22.5914 9.27617 22.6475C9.22023 22.7037 9.15359 22.7483 9.08011 22.7787C9.00662 22.8091 8.92777 22.8248 8.84813 22.8248H1.7875C1.62588 22.8248 1.47089 22.7612 1.35661 22.648C1.24233 22.5348 1.17813 22.3813 1.17813 22.2212V13.4727C1.17763 13.238 1.22405 13.0055 1.31469 12.7886C1.40533 12.5717 1.53841 12.3748 1.70625 12.2091L12.6587 1.31976C12.7028 1.27398 12.7557 1.23754 12.8144 1.21263C12.873 1.18773 12.9362 1.17489 13 1.17489C13.0638 1.17489 13.127 1.18773 13.1856 1.21263C13.2443 1.23754 13.2972 1.27398 13.3413 1.31976L24.2856 12.2091C24.4535 12.3748 24.5865 12.5717 24.6772 12.7886C24.7678 13.0055 24.8142 13.238 24.8138 13.4727V22.2212Z" fill="#4E4E50"/>
</g>
<defs>
<clipPath id="clip0">
<rect width="26" height="24" fill="white"/>
</clipPath>
</defs>
</svg>
