<svg width="26" height="24" viewBox="0 0 26 24" fill="none" xmlns="http://www.w3.org/2000/svg">
<path d="M21.4399 20.3621H4.35213C4.01287 20.3619 3.68095 20.264 3.39659 20.0804C3.11223 19.8967 2.88763 19.6352 2.75001 19.3274C2.6124 19.0196 2.56767 18.6788 2.62126 18.3463C2.67484 18.0138 2.82444 17.7038 3.05191 17.454C4.58653 15.7754 5.43544 13.5892 5.43275 11.3225V11.0902C5.43258 10.1057 5.63012 9.13104 6.01383 8.2232C6.39754 7.31536 6.95971 6.49254 7.66749 5.80283C8.37527 5.11313 9.21447 4.57038 10.136 4.20631C11.0576 3.84223 12.043 3.66414 13.0347 3.68243C17.0798 3.757 20.3592 7.18125 20.3592 11.3196C20.3566 13.5863 21.2055 15.7725 22.7401 17.4512C22.9685 17.7009 23.1189 18.0111 23.173 18.3441C23.2271 18.6771 23.1826 19.0185 23.0449 19.3268C22.9071 19.6351 22.6821 19.8971 22.3972 20.0809C22.1123 20.2647 21.7797 20.3624 21.4399 20.3621ZM12.896 4.51699C11.1401 4.51699 9.45611 5.20912 8.21425 6.44122C6.97238 7.67331 6.27433 9.34449 6.27356 11.0873V11.3196C6.27518 13.7932 5.34804 16.1787 3.67313 18.0104C3.55464 18.1404 3.47668 18.3017 3.44869 18.4748C3.42071 18.6479 3.4439 18.8253 3.51546 18.9856C3.58702 19.1458 3.70388 19.2821 3.85187 19.3777C3.99986 19.4734 4.17263 19.5245 4.34924 19.5246H21.4399C21.6165 19.5245 21.7892 19.4734 21.9372 19.3777C22.0852 19.2821 22.2021 19.1458 22.2736 18.9856C22.3452 18.8253 22.3684 18.6479 22.3404 18.4748C22.3124 18.3017 22.2345 18.1404 22.116 18.0104C20.4411 16.1787 19.5139 13.7932 19.5155 11.3196C19.5155 7.63438 16.6002 4.58295 13.0174 4.51699H12.896Z" fill="#4E4E50"/>
<path d="M12.896 23.4908C12.2506 23.4887 11.6209 23.2931 11.0894 22.9298C10.5579 22.5665 10.1492 22.0523 9.91705 21.4546C9.89713 21.4036 9.88762 21.3492 9.88906 21.2945C9.8905 21.2398 9.90287 21.186 9.92545 21.1361C9.94803 21.0862 9.98037 21.0413 10.0206 21.0039C10.0608 20.9665 10.1081 20.9374 10.1598 20.9183C10.264 20.8791 10.3796 20.8824 10.4814 20.9275C10.5832 20.9727 10.6629 21.056 10.703 21.1592C10.8718 21.5985 11.1707 21.9768 11.5603 22.2443C11.9499 22.5118 12.412 22.656 12.8857 22.6578C13.3594 22.6597 13.8226 22.5192 14.2144 22.2547C14.6061 21.9903 14.908 21.6144 15.0804 21.1764C15.121 21.0734 15.2012 20.9905 15.3033 20.9462C15.4055 20.9018 15.5212 20.8995 15.625 20.9398C15.7288 20.9801 15.8123 21.0597 15.857 21.1611C15.9017 21.2625 15.904 21.3774 15.8634 21.4804C15.6308 22.0735 15.2229 22.5829 14.6933 22.9417C14.1637 23.3005 13.5372 23.4919 12.896 23.4908Z" fill="#4E4E50"/>
<path d="M14.7336 4.76929C14.6955 4.77017 14.6575 4.76533 14.6209 4.75496C14.1036 4.60871 13.5695 4.52871 13.0318 4.51692C12.4103 4.50548 11.7905 4.58275 11.1912 4.74635C11.129 4.76211 11.064 4.76385 11.001 4.75144C10.938 4.73904 10.8786 4.7128 10.8272 4.67465C10.776 4.63532 10.7346 4.5849 10.706 4.52725C10.6775 4.46959 10.6626 4.40622 10.6625 4.34198V2.22835C10.6625 1.63735 10.899 1.07056 11.32 0.652668C11.7411 0.234772 12.3121 0 12.9075 0C13.5029 0 14.074 0.234772 14.495 0.652668C14.916 1.07056 15.1526 1.63735 15.1526 2.22835V4.35345C15.1525 4.41769 15.1376 4.48106 15.109 4.53872C15.0805 4.59637 15.039 4.64679 14.9879 4.68613C14.9141 4.73979 14.8251 4.7689 14.7336 4.76929ZM12.9162 3.68237H13.0462C13.4715 3.69134 13.895 3.73838 14.3118 3.82289V2.22835C14.3118 1.85869 14.1638 1.50417 13.9005 1.24279C13.6371 0.9814 13.2799 0.834555 12.9075 0.834555C12.5351 0.834555 12.1779 0.9814 11.9146 1.24279C11.6512 1.50417 11.5033 1.85869 11.5033 2.22835V3.81716C11.9651 3.729 12.4343 3.68387 12.9046 3.68237H12.9162Z" fill="#4E4E50"/>
<path d="M22.8239 12.9314C22.765 12.9317 22.7067 12.919 22.6534 12.8941C22.6006 12.8729 22.5527 12.8413 22.5126 12.8012C22.4724 12.7611 22.4408 12.7134 22.4198 12.6609C22.3987 12.6083 22.3886 12.5521 22.39 12.4956C22.3914 12.4391 22.4044 12.3834 22.428 12.332C22.9569 11.1681 23.2393 9.90872 23.2577 8.632C23.2761 7.35528 23.0301 6.08841 22.535 4.90994C22.5121 4.81446 22.524 4.71402 22.5685 4.62641C22.6131 4.5388 22.6874 4.46965 22.7784 4.4312C22.8694 4.39274 22.9711 4.38747 23.0656 4.4163C23.1601 4.44513 23.2413 4.50621 23.2949 4.58873C23.8385 5.87339 24.1101 7.25534 24.0927 8.64863C24.0753 10.0419 23.7693 11.4168 23.1937 12.6876C23.1613 12.7586 23.1094 12.8191 23.044 12.8622C22.9786 12.9053 22.9024 12.9293 22.8239 12.9314Z" fill="#4E4E50"/>
<path d="M24.4274 14.2619C24.3655 14.2613 24.3045 14.2476 24.2483 14.2218C24.1982 14.1984 24.1533 14.1655 24.1162 14.1248C24.079 14.0841 24.0504 14.0365 24.0318 13.9848C24.0133 13.9331 24.0053 13.8782 24.0082 13.8234C24.0111 13.7686 24.025 13.7149 24.0489 13.6654C24.7884 12.0874 25.1657 10.3662 25.1537 8.62597C25.1418 6.8857 24.7407 5.16977 23.9796 3.602C23.9373 3.5033 23.9348 3.39228 23.9726 3.29181C24.0104 3.19135 24.0856 3.1091 24.1827 3.06203C24.2797 3.01496 24.3913 3.00665 24.4944 3.03881C24.5974 3.07098 24.6841 3.14116 24.7366 3.23491C25.5532 4.91468 25.9846 6.75325 25.9996 8.61831C26.0146 10.4834 25.6128 12.3285 24.8233 14.021C24.7883 14.0952 24.7321 14.1576 24.6618 14.2004C24.5914 14.2432 24.5099 14.2646 24.4274 14.2619Z" fill="#4E4E50"/>
<path d="M3.17614 12.2428C3.09538 12.2425 3.01642 12.2191 2.94875 12.1753C2.88109 12.1316 2.8276 12.0694 2.79474 11.9961C2.21848 10.7254 1.9121 9.35052 1.89471 7.95713C1.87731 6.56373 2.14926 5.18171 2.69361 3.89722C2.71479 3.8467 2.74581 3.80082 2.78488 3.76222C2.82396 3.72362 2.87032 3.69305 2.92132 3.67227C2.97232 3.65149 3.02696 3.6409 3.08209 3.64112C3.13722 3.64133 3.19176 3.65235 3.24259 3.67353C3.34458 3.71771 3.42502 3.79984 3.46662 3.90228C3.50823 4.00471 3.50767 4.11926 3.46508 4.22129C2.96642 5.39999 2.7173 6.66788 2.73321 7.94618C2.74911 9.22448 3.0297 10.4859 3.55754 11.652C3.60266 11.7533 3.60583 11.8681 3.56636 11.9716C3.52689 12.0752 3.44796 12.1592 3.34661 12.2055C3.29273 12.2287 3.23485 12.2413 3.17614 12.2428Z" fill="#4E4E50"/>
<path d="M1.5581 13.5706C1.47836 13.5708 1.4002 13.5485 1.3327 13.5064C1.2652 13.4642 1.21111 13.404 1.1767 13.3326C0.387151 11.6401 -0.0145838 9.79493 0.000404481 7.92987C0.0153928 6.06481 0.446731 4.22624 1.26338 2.54646C1.28578 2.49415 1.31867 2.44691 1.36005 2.40762C1.40144 2.36833 1.45045 2.33782 1.5041 2.31794C1.55775 2.29807 1.61492 2.28924 1.67212 2.292C1.72932 2.29476 1.78535 2.30905 1.83681 2.334C1.88826 2.35895 1.93406 2.39404 1.97141 2.43713C2.00876 2.48022 2.03688 2.5304 2.05405 2.58462C2.07123 2.63885 2.0771 2.69598 2.07132 2.75253C2.06553 2.80908 2.0482 2.86386 2.02039 2.91355C1.25699 4.48026 0.853479 6.19564 0.838989 7.93591C0.824499 9.67618 1.19939 11.3979 1.9366 12.977C1.95991 13.0267 1.97309 13.0804 1.97539 13.1352C1.97769 13.1899 1.96905 13.2446 1.94999 13.2961C1.93092 13.3475 1.9018 13.3947 1.8643 13.4349C1.8268 13.4751 1.78165 13.5076 1.73146 13.5305C1.67753 13.5568 1.61822 13.5706 1.5581 13.5706Z" fill="#4E4E50"/>
</svg>
