<svg width="27" height="26" viewBox="0 0 27 26" fill="none" xmlns="http://www.w3.org/2000/svg">
<path d="M8.66348 15.9107C8.4548 15.91 8.24805 15.9512 8.05505 16.0319C7.86205 16.1126 7.68661 16.2312 7.53875 16.3808C7.39089 16.5305 7.27353 16.7084 7.19338 16.9042C7.11323 17.1001 7.07187 17.31 7.07166 17.5221V21.6309C7.07208 22.0581 7.23925 22.4678 7.53648 22.7699C7.8337 23.072 8.23671 23.2419 8.65705 23.2423H8.68116C9.10151 23.2419 9.50451 23.072 9.80174 22.7699C10.099 22.4678 10.2661 22.0581 10.2666 21.6309V17.5221C10.2657 17.3093 10.2235 17.0986 10.1425 16.9023C10.0614 16.706 9.943 16.5279 9.79407 16.3782C9.64515 16.2285 9.46862 16.1102 9.27461 16.0299C9.0806 15.9497 8.87292 15.9092 8.66348 15.9107ZM9.32272 21.6309C9.32272 21.8043 9.25496 21.9705 9.13434 22.0931C9.01372 22.2157 8.85013 22.2846 8.67956 22.2846H8.66348C8.57947 22.2846 8.49629 22.2677 8.41879 22.2347C8.3413 22.2017 8.27103 22.1534 8.21207 22.0926C8.15312 22.0317 8.10665 21.9596 8.07539 21.8803C8.04413 21.8011 8.02869 21.7163 8.02996 21.6309V17.5221C8.02996 17.3488 8.09773 17.1825 8.21834 17.0599C8.33896 16.9373 8.50255 16.8684 8.67313 16.8684C8.8437 16.8684 9.00729 16.9373 9.12791 17.0599C9.24852 17.1825 9.31629 17.3488 9.31629 17.5221L9.32272 21.6309Z" fill="#4E4E50"/>
<path d="M13.4856 15.9107C13.2771 15.9103 13.0705 15.9516 12.8777 16.0324C12.6849 16.1132 12.5096 16.2318 12.3619 16.3814C12.2142 16.5311 12.097 16.7089 12.017 16.9046C11.9369 17.1003 11.8956 17.3102 11.8954 17.5222V21.6309C11.8958 22.0582 12.063 22.4678 12.3602 22.7699C12.6574 23.072 13.0604 23.2419 13.4808 23.2424H13.5065C13.9268 23.2419 14.3298 23.072 14.6271 22.7699C14.9243 22.4678 15.0915 22.0582 15.0919 21.6309V17.5222C15.0908 17.309 15.0484 17.0982 14.9671 16.9018C14.8857 16.7054 14.767 16.5273 14.6178 16.3775C14.4686 16.2278 14.2918 16.1095 14.0975 16.0294C13.9032 15.9493 13.6953 15.909 13.4856 15.9107ZM14.1448 21.6309C14.1449 21.8026 14.0784 21.9674 13.9599 22.0897C13.8413 22.212 13.6802 22.2821 13.5113 22.2846H13.4856C13.3167 22.2821 13.1556 22.212 13.037 22.0897C12.9185 21.9674 12.8521 21.8026 12.8521 21.6309V17.5222C12.8521 17.3488 12.9198 17.1825 13.0405 17.0599C13.1611 16.9373 13.3247 16.8684 13.4952 16.8684C13.6658 16.8684 13.8294 16.9373 13.95 17.0599C14.0706 17.1825 14.1384 17.3488 14.1384 17.5222L14.1448 21.6309Z" fill="#4E4E50"/>
<path d="M18.3093 15.9107C17.8889 15.9111 17.4859 16.081 17.1887 16.3831C16.8915 16.6853 16.7243 17.0949 16.7239 17.5221V21.6309C16.7243 22.0581 16.8915 22.4678 17.1887 22.7699C17.4859 23.072 17.8889 23.2419 18.3093 23.2423H18.327C18.7473 23.2419 19.1503 23.072 19.4475 22.7699C19.7448 22.4678 19.9119 22.0581 19.9123 21.6309V17.5221C19.9115 17.3093 19.8693 17.0986 19.7883 16.9023C19.7072 16.706 19.5888 16.5279 19.4399 16.3782C19.2909 16.2285 19.1144 16.1102 18.9204 16.0299C18.7264 15.9497 18.5187 15.9092 18.3093 15.9107ZM18.9685 21.6309C18.9685 21.8029 18.9019 21.9679 18.783 22.0903C18.6641 22.2126 18.5026 22.2825 18.3334 22.2846H18.3093C18.1404 22.282 17.9792 22.212 17.8607 22.0897C17.7422 21.9674 17.6757 21.8026 17.6758 21.6309V17.5221C17.6758 17.3488 17.7435 17.1825 17.8641 17.0599C17.9847 16.9373 18.1483 16.8684 18.3189 16.8684C18.4895 16.8684 18.6531 16.9373 18.7737 17.0599C18.8943 17.1825 18.9621 17.3488 18.9621 17.5221L18.9685 21.6309Z" fill="#4E4E50"/>
<path d="M27 11.7169C26.9992 11.004 26.7203 10.3205 26.2245 9.81626C25.7287 9.312 25.0564 9.02811 24.355 9.02681H20.3706V7.17674C20.3706 3.34584 17.5053 0.196457 13.8458 0.00850789C12.915 -0.0381977 11.9847 0.107754 11.1112 0.437511C10.2376 0.767268 9.43906 1.27396 8.76396 1.92684C8.08886 2.57973 7.55127 3.3652 7.18381 4.23562C6.81635 5.10603 6.62667 6.04325 6.62628 6.99042V9.02681H2.64351C1.99071 9.02719 1.3611 9.27293 0.875823 9.71675C0.390548 10.1606 0.0838869 10.7711 0.014842 11.431C-0.0542029 12.0908 0.119246 12.7532 0.501818 13.2909C0.884389 13.8285 1.44906 14.2034 2.08718 14.3433L4.39291 24.1347C4.49181 24.5578 4.72838 24.9345 5.06429 25.2039C5.4002 25.4732 5.81575 25.6194 6.2436 25.6187H20.763C21.1909 25.6197 21.6066 25.4736 21.9425 25.2042C22.2785 24.9349 22.515 24.5579 22.6136 24.1347L24.9194 14.3433C25.5086 14.2119 26.0361 13.8799 26.4144 13.4023C26.7928 12.9247 26.9994 12.3301 27 11.7169ZM7.57816 6.99042C7.57936 6.17481 7.74344 5.36794 8.06046 4.61868C8.37749 3.86943 8.84086 3.19339 9.4225 2.63152C10.0041 2.06965 10.692 1.63365 11.4443 1.34993C12.1966 1.06621 12.9977 0.94068 13.7991 0.980942C16.9506 1.14438 19.4268 3.86719 19.4268 7.18327V10.4062C19.4322 10.5443 19.4101 10.6821 19.3619 10.8114C19.3136 10.9406 19.2402 11.0586 19.1459 11.1583C19.0517 11.2579 18.9387 11.3373 18.8135 11.3914C18.6884 11.4456 18.5538 11.4735 18.4178 11.4735C18.2818 11.4735 18.1472 11.4456 18.0221 11.3914C17.897 11.3373 17.7839 11.2579 17.6897 11.1583C17.5955 11.0586 17.522 10.9406 17.4738 10.8114C17.4255 10.6821 17.4034 10.5443 17.4089 10.4062V6.99042C17.4084 6.46827 17.3067 5.95133 17.1094 5.46922C16.9122 4.9871 16.6233 4.54927 16.2593 4.18082C15.8953 3.81236 15.4634 3.52051 14.9882 3.32198C14.5131 3.12346 14.0041 3.02215 13.4904 3.02387C11.2812 3.02387 9.59608 4.90336 9.59608 7.11136V10.4062C9.6015 10.5443 9.57942 10.6821 9.53116 10.8114C9.4829 10.9406 9.40946 11.0586 9.31523 11.1583C9.22101 11.2579 9.10794 11.3373 8.98282 11.3914C8.85771 11.4456 8.72311 11.4735 8.58712 11.4735C8.45112 11.4735 8.31653 11.4456 8.19141 11.3914C8.06629 11.3373 7.95323 11.2579 7.859 11.1583C7.76478 11.0586 7.69133 10.9406 7.64307 10.8114C7.59481 10.6821 7.57273 10.5443 7.57816 10.4062V6.99042ZM16.4506 9.02681H10.5463V7.11136C10.5463 5.53749 11.6494 4.2055 13.119 4.01428C13.5358 3.95845 13.9596 3.99371 14.3619 4.11772C14.7643 4.24172 15.136 4.4516 15.4521 4.73334C15.7683 5.01507 16.0216 5.36216 16.1952 5.7514C16.3687 6.14064 16.4585 6.56306 16.4586 6.99042L16.4506 9.02681ZM21.6827 23.9091C21.6334 24.1206 21.5152 24.309 21.3474 24.4437C21.1796 24.5784 20.972 24.6515 20.7581 24.6511H6.23878C6.02495 24.6515 5.81729 24.5784 5.64947 24.4437C5.48166 24.309 5.36352 24.1206 5.31423 23.9091L3.07443 14.4054H23.9225L21.6827 23.9091ZM24.3598 13.4379H2.63869C2.19846 13.4241 1.78081 13.2367 1.47421 12.9153C1.16761 12.5939 0.996152 12.1638 0.996152 11.7161C0.996152 11.2684 1.16761 10.8384 1.47421 10.517C1.78081 10.1956 2.19846 10.0081 2.63869 9.99434H6.62628V10.4062C6.62628 10.6678 6.67698 10.9269 6.77548 11.1686C6.87398 11.4103 7.01836 11.6299 7.20036 11.8149C7.38237 11.9999 7.59844 12.1467 7.83624 12.2468C8.07404 12.3469 8.32892 12.3985 8.58631 12.3985C8.84371 12.3985 9.09858 12.3469 9.33638 12.2468C9.57419 12.1467 9.79026 11.9999 9.97227 11.8149C10.1543 11.6299 10.2986 11.4103 10.3971 11.1686C10.4956 10.9269 10.5463 10.6678 10.5463 10.4062V9.99434H16.4506V10.4062C16.4506 10.9346 16.6571 11.4413 17.0246 11.8149C17.3922 12.1886 17.8908 12.3985 18.4106 12.3985C18.9304 12.3985 19.429 12.1886 19.7965 11.8149C20.1641 11.4413 20.3706 10.9346 20.3706 10.4062V9.99434H24.355C24.7952 10.0081 25.2129 10.1956 25.5195 10.517C25.8261 10.8384 25.9975 11.2684 25.9975 11.7161C25.9975 12.1638 25.8261 12.5939 25.5195 12.9153C25.2129 13.2367 24.7952 13.4241 24.355 13.4379H24.3598Z" fill="#4E4E50"/>
</svg>
