<svg width="20" height="20" viewBox="0 0 20 20" fill="none" xmlns="http://www.w3.org/2000/svg">
<g clip-path="url(#clip0)">
<path d="M19.7271 7.60833C19.2503 5.62689 18.1747 3.83838 16.645 2.48366C15.1154 1.12894 13.2051 0.273087 11.1716 0.031354C9.13808 -0.210379 7.07893 0.173624 5.27147 1.13165C3.46402 2.08967 1.99507 3.5757 1.06247 5.3896C0.129862 7.2035 -0.221604 9.25814 0.0554002 11.2768C0.332405 13.2955 1.22458 15.1813 2.61176 16.6801C3.99894 18.179 5.81451 19.2189 7.81394 19.66C9.81338 20.101 11.9006 19.9219 13.7946 19.1468C14.0687 19.026 14.3763 19.0032 14.6653 19.0821L17.4594 19.9354C17.7041 20.0117 17.9646 20.0235 18.2153 19.9696C18.466 19.9157 18.6984 19.7979 18.8896 19.6279C19.0809 19.4578 19.2245 19.2413 19.3063 18.9994C19.3882 18.7576 19.4056 18.4988 19.3567 18.2483L18.7849 15.236C18.7376 14.9591 18.7857 14.6744 18.9213 14.428C19.9961 12.3223 20.2817 9.90456 19.7271 7.60833ZM17.8817 13.8979C17.6267 14.3728 17.5397 14.9193 17.6348 15.4493L18.1936 18.4681C18.2042 18.5212 18.2007 18.5762 18.1834 18.6275C18.166 18.6789 18.1354 18.7248 18.0947 18.7608C18.054 18.7968 18.0045 18.8215 17.9511 18.8325C17.8978 18.8435 17.8425 18.8404 17.7907 18.8236L15.0032 17.9703C14.7923 17.9076 14.5736 17.8749 14.3534 17.8734C14.0162 17.8744 13.6826 17.9425 13.3723 18.0737C11.4493 18.857 9.31089 18.9432 7.33053 18.3173C5.35018 17.6914 3.65384 16.3932 2.53787 14.6495C1.42189 12.9058 0.957249 10.8274 1.22511 8.77754C1.49296 6.72764 2.47629 4.83654 4.0033 3.43461C5.53031 2.03269 7.50391 1.20908 9.5793 1.10768C11.6547 1.00628 13.6999 1.63353 15.3577 2.87985C17.0154 4.12617 18.1803 5.91232 18.6488 7.92624C19.1172 9.94016 18.8595 12.0538 17.9207 13.8979H17.8817Z" fill="#4E4E50"/>
</g>
<defs>
<clipPath id="clip0">
<rect width="20" height="20" fill="white"/>
</clipPath>
</defs>
</svg>
