<svg width="26" height="24" viewBox="0 0 26 24" fill="none" xmlns="http://www.w3.org/2000/svg">
<g clip-path="url(#clip0)">
<path d="M25.1225 11.38L14.1781 0.482615C14.0234 0.329304 13.8398 0.207685 13.6376 0.124708C13.4355 0.0417319 13.2188 -0.000976562 13 -0.000976562C12.7812 -0.000976562 12.5645 0.0417319 12.3624 0.124708C12.1602 0.207685 11.9766 0.329304 11.8219 0.482615L0.869375 11.38C0.312908 11.937 0.000538583 12.6889 0 13.4726L0 22.221C-4.86086e-06 22.6914 0.188061 23.1426 0.523051 23.4759C0.85804 23.8093 1.31268 23.9976 1.7875 23.9997H8.84813C9.32295 23.9976 9.77758 23.8093 10.1126 23.4759C10.4476 23.1426 10.6356 22.6914 10.6356 22.221V16.9494C10.6356 16.3283 10.8847 15.7326 11.3281 15.2933C11.7715 14.8541 12.3729 14.6074 13 14.6074C13.6271 14.6074 14.2285 14.8541 14.6719 15.2933C15.1153 15.7326 15.3644 16.3283 15.3644 16.9494V22.221C15.3633 22.4542 15.4088 22.6854 15.4981 22.9011C15.5875 23.1169 15.7189 23.313 15.885 23.4783C16.0511 23.6435 16.2485 23.7747 16.4659 23.8642C16.6833 23.9537 16.9165 23.9997 17.1519 23.9997H24.2044C24.6806 23.9997 25.1373 23.8123 25.4741 23.4788C25.8108 23.1452 26 22.6928 26 22.221V13.4726C26 13.0837 25.9225 12.6987 25.7719 12.3396C25.6213 11.9805 25.4006 11.6544 25.1225 11.38ZM24.8138 22.221C24.8148 22.3006 24.7998 22.3796 24.7696 22.4533C24.7394 22.527 24.6945 22.594 24.6377 22.6503C24.5809 22.7066 24.5133 22.751 24.4389 22.7809C24.3644 22.8109 24.2847 22.8258 24.2044 22.8247H17.1519C16.9903 22.8247 16.8353 22.7611 16.721 22.6479C16.6067 22.5347 16.5425 22.3811 16.5425 22.221V16.9494C16.5655 16.4739 16.4908 15.9988 16.3229 15.5527C16.1551 15.1067 15.8975 14.699 15.5659 14.3544C15.2344 14.0099 14.8356 13.7356 14.3938 13.5482C13.9521 13.3608 13.4765 13.2641 12.9959 13.2641C12.5154 13.2641 12.0398 13.3608 11.598 13.5482C11.1563 13.7356 10.7575 14.0099 10.4259 14.3544C10.0943 14.699 9.83682 15.1067 9.66896 15.5527C9.50109 15.9988 9.42639 16.4739 9.44938 16.9494V22.221C9.45045 22.2999 9.43569 22.3782 9.40596 22.4514C9.37623 22.5246 9.33211 22.5912 9.27617 22.6474C9.22023 22.7036 9.15359 22.7481 9.08011 22.7786C9.00662 22.809 8.92777 22.8247 8.84813 22.8247H1.7875C1.62588 22.8247 1.47089 22.7611 1.35661 22.6479C1.24233 22.5347 1.17813 22.3811 1.17813 22.221V13.4726C1.17763 13.2378 1.22405 13.0053 1.31469 12.7885C1.40533 12.5716 1.53841 12.3747 1.70625 12.209L12.6587 1.31964C12.7028 1.27386 12.7557 1.23741 12.8144 1.21251C12.873 1.18761 12.9362 1.17477 13 1.17477C13.0638 1.17477 13.127 1.18761 13.1856 1.21251C13.2443 1.23741 13.2972 1.27386 13.3413 1.31964L24.2856 12.209C24.4535 12.3747 24.5865 12.5716 24.6772 12.7885C24.7678 13.0053 24.8142 13.2378 24.8138 13.4726V22.221Z" fill="#4E4E50"/>
</g>
<defs>
<clipPath id="clip0">
<rect width="26" height="24" fill="white"/>
</clipPath>
</defs>
</svg>
