<svg width="25" height="25" viewBox="0 0 25 25" fill="none" xmlns="http://www.w3.org/2000/svg">
<g clip-path="url(#clip0)">
<path d="M12.5 16.4062C14.6574 16.4062 16.4062 14.6574 16.4062 12.5C16.4062 10.3426 14.6574 8.59375 12.5 8.59375C10.3426 8.59375 8.59375 10.3426 8.59375 12.5C8.59375 14.6574 10.3426 16.4062 12.5 16.4062Z" stroke="#4E4E50" stroke-width="2" stroke-miterlimit="10" stroke-linecap="round" stroke-linejoin="round"/>
<path d="M23.8281 10.5469H21.2691C21.0434 9.52967 20.6414 8.55983 20.0813 7.68125L21.8914 5.87109C21.9646 5.79784 22.0058 5.6985 22.0058 5.59492C22.0058 5.49134 21.9646 5.392 21.8914 5.31875L19.6816 3.10859C19.6084 3.03536 19.509 2.99422 19.4055 2.99422C19.3019 2.99422 19.2026 3.03536 19.1293 3.10859L17.3191 4.91875C16.4404 4.35871 15.4704 3.95681 14.4531 3.73125V1.17188C14.4531 1.06827 14.412 0.968918 14.3387 0.895661C14.2655 0.822405 14.1661 0.78125 14.0625 0.78125H10.9375C10.8339 0.78125 10.7345 0.822405 10.6613 0.895661C10.588 0.968918 10.5469 1.06827 10.5469 1.17188V3.73125C9.52967 3.95697 8.55983 4.359 7.68125 4.91914L5.8707 3.10859C5.79745 3.03536 5.69811 2.99422 5.59453 2.99422C5.49095 2.99422 5.39161 3.03536 5.31836 3.10859L3.10859 5.31836C3.03536 5.39161 2.99422 5.49095 2.99422 5.59453C2.99422 5.69811 3.03536 5.79745 3.10859 5.8707L4.91875 7.68086C4.35871 8.55958 3.95681 9.52956 3.73125 10.5469H1.17188C1.06827 10.5469 0.968918 10.588 0.895661 10.6613C0.822405 10.7345 0.78125 10.8339 0.78125 10.9375V14.0625C0.78125 14.1661 0.822405 14.2655 0.895661 14.3387C0.968918 14.412 1.06827 14.4531 1.17188 14.4531H3.73125C3.95697 15.4703 4.359 16.4402 4.91914 17.3187L3.10859 19.1293C3.03536 19.2026 2.99422 19.3019 2.99422 19.4055C2.99422 19.509 3.03536 19.6084 3.10859 19.6816L5.31836 21.8914C5.39161 21.9646 5.49095 22.0058 5.59453 22.0058C5.69811 22.0058 5.79745 21.9646 5.8707 21.8914L7.68086 20.0813C8.55957 20.6414 9.52954 21.0434 10.5469 21.2691V23.8281C10.5469 23.9317 10.588 24.0311 10.6613 24.1043C10.7345 24.1776 10.8339 24.2188 10.9375 24.2188H14.0625C14.1661 24.2188 14.2655 24.1776 14.3387 24.1043C14.412 24.0311 14.4531 23.9317 14.4531 23.8281V21.2691C15.4703 21.0434 16.4402 20.6414 17.3187 20.0813L19.1289 21.8914C19.2022 21.9646 19.3015 22.0058 19.4051 22.0058C19.5087 22.0058 19.608 21.9646 19.6812 21.8914L21.891 19.6816C21.9642 19.6084 22.0054 19.509 22.0054 19.4055C22.0054 19.3019 21.9642 19.2026 21.891 19.1293L20.0809 17.3191C20.6412 16.4405 21.0433 15.4705 21.2691 14.4531H23.8281C23.9317 14.4531 24.0311 14.412 24.1043 14.3387C24.1776 14.2655 24.2188 14.1661 24.2188 14.0625V10.9375C24.2188 10.8339 24.1776 10.7345 24.1043 10.6613C24.0311 10.588 23.9317 10.5469 23.8281 10.5469Z" stroke="#4E4E50" stroke-width="2" stroke-miterlimit="10" stroke-linecap="round" stroke-linejoin="round"/>
</g>
<defs>
<clipPath id="clip0">
<rect width="25" height="25" fill="white"/>
</clipPath>
</defs>
</svg>
