<svg width="24" height="23" viewBox="0 0 24 23" fill="none" xmlns="http://www.w3.org/2000/svg">
<path d="M12.0036 13.5605C13.3446 13.5605 14.6555 13.1629 15.7705 12.4179C16.8855 11.6728 17.7546 10.6139 18.2677 9.37497C18.7809 8.13604 18.9152 6.77275 18.6536 5.45751C18.392 4.14226 17.7462 2.93414 16.798 1.9859C15.8497 1.03766 14.6416 0.391902 13.3264 0.130284C12.0111 -0.131334 10.6478 0.00293779 9.4089 0.51612C8.16997 1.0293 7.11103 1.89835 6.36601 3.01336C5.62098 4.12837 5.22333 5.43926 5.22333 6.78027C5.22523 8.57793 5.94018 10.3014 7.21132 11.5725C8.48246 12.8437 10.2059 13.5586 12.0036 13.5605ZM12.0036 1.04754C13.1388 1.04754 14.2486 1.38418 15.1925 2.01489C16.1364 2.6456 16.8721 3.54205 17.3066 4.59088C17.741 5.63971 17.8547 6.79381 17.6332 7.90725C17.4117 9.02068 16.8651 10.0434 16.0623 10.8462C15.2596 11.6489 14.2368 12.1956 13.1234 12.4171C12.01 12.6385 10.8559 12.5249 9.80703 12.0904C8.7582 11.656 7.86174 10.9203 7.23104 9.97637C6.60033 9.03245 6.26369 7.92269 6.26369 6.78745C6.26369 5.26513 6.86843 3.80516 7.94487 2.72872C9.02131 1.65228 10.4813 1.04754 12.0036 1.04754Z" fill="#4E4E50"/>
<path d="M17.6072 14.6008H6.4C5.55988 14.5999 4.72781 14.7646 3.95137 15.0854C3.17493 15.4062 2.46934 15.877 1.87495 16.4707C1.28056 17.0644 0.809028 17.7695 0.48731 18.5456C0.165592 19.3217 -5.29122e-07 20.1535 0 20.9937L0 21.9407C0 22.608 1.04036 22.565 1.04036 21.8977V20.9937C1.04036 20.2902 1.17904 19.5936 1.44848 18.9437C1.71791 18.2938 2.11281 17.7035 2.6106 17.2064C3.10838 16.7092 3.69928 16.3151 4.3495 16.0466C4.99972 15.778 5.6965 15.6403 6.4 15.6412H17.6072C19.0267 15.6412 20.3882 16.2051 21.3919 17.2089C22.3957 18.2127 22.9596 19.5741 22.9596 20.9937V21.8977C22.9596 22.565 23.9928 22.6152 24 21.9407V20.9937C24 19.2982 23.3265 17.6721 22.1276 16.4732C20.9287 15.2744 19.3027 14.6008 17.6072 14.6008Z" fill="#4E4E50"/>
</svg>
